#!OML:ASF H:\Punching\Project 1\Capture day 1\Session 1\female.ASF
:FULLY-SPECIFIED
:DEGREES
1399
root -0.657553 13.5973 5.27085 18.4695 -26.784 -11.1642
lowerback 10.8417 -4.03021 -1.05249
upperback -1.07354 -5.35525 2.32703
thorax -6.88447 -2.5384 3.92387
lowerneck -0.0179695 11.0398 24.3748
upperneck 19.9218 15.0478 -9.51607
head 8.91201 8.19202 -5.6879
rclavicle 1.15295e-013 1.11319e-014
rhumerus 14.0692 33.467 -82.1756
rradius 135.282
rwrist -39.5289
rhand -18.9346 -3.68026
rfingers 7.12502
rthumb 7.36831 -33.532
lclavicle 1.15295e-013 1.11319e-014
lhumerus 9.68128 -41.2623 83.2611
lradius 136.886
lwrist 5.21849
lhand -16.8999 32.4762
lfingers 7.12502
lthumb 9.33189 62.2496
rfemur -62.3974 13.0648 22.4436
rtibia 53.249
rfoot -9.41117 16.4557
rtoes 2.23873
lfemur -14.4087 2.64128 -0.870467
ltibia 70.3925
lfoot -23.7932 13.1017
ltoes -37.0502
1400
root -0.658589 13.614 5.27785 18.7401 -26.9337 -11.3918
lowerback 10.6624 -4.13728 -0.994189
upperback -1.13493 -5.48815 2.3721
thorax -6.84015 -2.60622 3.9469
lowerneck -0.0209268 11.0326 24.3592
upperneck 19.744 15.0593 -9.64329
head 8.85989 8.18314 -5.72894
rclavicle 7.03698e-014 -3.33958e-014
rhumerus 13.9259 33.5986 -81.9573
rradius 135.387
rwrist -39.4256
rhand -18.8349 -3.58735
rfingers 7.12502
rthumb 7.46449 -33.4357
lclavicle 7.03698e-014 -3.33958e-014
lhumerus 10.1637 -41.0434 82.365
lradius 137.013
lwrist 6.13614
lhand -17.1371 32.5763
lfingers 7.12502
lthumb 9.10309 62.3599
rfemur -62.3045 13.2013 22.5991
rtibia 52.8342
rfoot -9.17512 16.7551
rtoes 2.7821
lfemur -14.3456 2.83568 -0.712004
ltibia 70.1109
lfoot -23.7658 13.0826
ltoes -36.9788
1401
root -0.661 13.6312 5.28381 18.9713 -27.007 -11.5383
lowerback 10.4766 -4.22766 -0.968746
upperback -1.18628 -5.60341 2.4165
thorax -6.7796 -2.66473 3.9829
lowerneck -0.06634 11.0022 24.3032
upperneck 19.5524 15.0381 -9.80177
head 8.80281 8.15314 -5.77816
rclavicle -1.13307e-013 -2.22639e-014
rhumerus 13.8644 33.6799 -81.6958
rradius 135.471
rwrist -39.3653
rhand -18.7536 -3.52455
rfingers 7.12502
rthumb 7.543 -33.3701
lclavicle -1.13307e-013 -2.22639e-014
lhumerus 10.5663 -40.8642 81.5172
lradius 137.175
lwrist 7.36718
lhand -17.575 32.7298
lfingers 7.12502
lthumb 8.68051 62.5313
rfemur -62.249 13.3413 22.6462
rtibia 52.4837
rfoot -8.96894 16.928
rtoes 3.27831
lfemur -14.2991 3.01277 -0.567434
ltibia 69.7922
lfoot -23.7664 12.9465
ltoes -36.9843
1402
root -0.664823 13.6487 5.2884 19.1466 -27.0006 -11.5934
lowerback 10.3003 -4.30335 -0.983221
upperback -1.22715 -5.70449 2.45728
thorax -6.71061 -2.71518 4.0347
lowerneck -0.152792 10.9517 24.2127
upperneck 19.3556 14.9879 -9.98733
head 8.74449 8.10461 -5.83437
rclavicle 1.90833e-014 -4.29375e-014
rhumerus 13.8936 33.7235 -81.4164
rradius 135.518
rwrist -39.3159
rhand -18.6978 -3.49764
rfingers 7.12502
rthumb 7.59681 -33.3412
lclavicle 1.90833e-014 -4.29375e-014
lhumerus 10.8851 -40.6626 80.7462
lradius 137.357
lwrist 8.80032
lhand -18.1423 32.9193
lfingers 7.12502
lthumb 8.13299 62.7428
rfemur -62.2241 13.479 22.5775
rtibia 52.2068
rfoot -8.81358 16.9716
rtoes 3.67974
lfemur -14.2598 3.15335 -0.44273
ltibia 69.4302
lfoot -23.7913 12.6865
ltoes -37.0807
1403
root -0.66998 13.6665 5.2916 19.2505 -26.9027 -11.5437
lowerback 10.1498 -4.37489 -1.04918
upperback -1.26016 -5.80631 2.49957
thorax -6.64234 -2.76408 4.11812
lowerneck -0.271161 10.89 24.0768
upperneck 19.1617 14.9232 -10.1959
head 8.68758 8.04438 -5.89283
rclavicle -1.19271e-015 -9.54166e-015
rhumerus 14.009 33.7652 -81.1328
rradius 135.528
rwrist -39.2563
rhand -18.6801 -3.50866
rfingers 7.12502
rthumb 7.61397 -33.3516
lclavicle -1.19271e-015 -9.54166e-015
lhumerus 11.1204 -40.3626 80.074
lradius 137.545
lwrist 10.3289
lhand -18.7625 33.1307
lfingers 7.12502
lthumb 7.5344 62.9765
rfemur -62.2242 13.598 22.3854
rtibia 52.0138
rfoot -8.73294 16.8793
rtoes 3.92295
lfemur -14.2261 3.23457 -0.346934
ltibia 69.0224
lfoot -23.8398 12.2941
ltoes -37.2644
1404
root -0.676355 13.6844 5.29347 19.2748 -26.6997 -11.3878
lowerback 10.0371 -4.44572 -1.1545
upperback -1.28614 -5.91199 2.53816
thorax -6.58381 -2.81325 4.22272
lowerneck -0.423069 10.8192 23.9029
upperneck 18.9771 14.8443 -10.4169
head 8.63467 7.97379 -5.95056
rclavicle 1.07344e-014 3.49861e-014
rhumerus 14.1998 33.8111 -80.8653
rradius 135.503
rwrist -39.1742
rhand -18.6955 -3.54591
rfingers 7.12502
rthumb 7.59906 -33.3894
lclavicle 1.07344e-014 3.49861e-014
lhumerus 11.2845 -39.9302 79.5035
lradius 137.72
lwrist 11.8253
lhand -19.3298 33.3389
lfingers 7.12502
lthumb 6.98678 63.2036
rfemur -62.2426 13.6825 22.0742
rtibia 51.9098
rfoot -8.73158 16.6479
rtoes 4.0197
lfemur -14.1984 3.24439 -0.277632
ltibia 68.5709
lfoot -23.9062 11.7737
ltoes -37.5311
1405
root -0.683844 13.702 5.2939 19.2196 -26.378 -11.1324
lowerback 9.96708 -4.51385 -1.27746
upperback -1.30432 -6.01656 2.56576
thorax -6.54013 -2.86098 4.32868
lowerneck -0.617654 10.7366 23.7028
upperneck 18.8079 14.7423 -10.6375
head 8.58807 7.89007 -6.00541
rclavicle 1.33583e-013 -2.70347e-014
rhumerus 14.4435 33.8458 -80.6256
rradius 135.462
rwrist -39.0749
rhand -18.7337 -3.59567
rfingers 7.12502
rthumb 7.56224 -33.4405
lclavicle 1.33583e-013 -2.70347e-014
lhumerus 11.407 -39.3567 79.0227
lradius 137.857
lwrist 13.1866
lhand -19.7657 33.5246
lfingers 7.12502
lthumb 6.56597 63.4028
rfemur -62.2737 13.7191 21.6586
rtibia 51.8981
rfoot -8.8199 16.2707
rtoes 3.92412
lfemur -14.1837 3.18007 -0.22489
ltibia 68.083
lfoot -23.9872 11.1304
ltoes -37.8729
1406
root -0.692495 13.719 5.29309 19.0976 -25.928 -10.7988
lowerback 9.93971 -4.56922 -1.38207
upperback -1.31752 -6.10269 2.57446
thorax -6.52023 -2.89985 4.40579
lowerneck -0.867027 10.6328 23.4881
upperneck 18.6597 14.5975 -10.8376
head 8.54783 7.78553 -6.0542
rclavicle -3.29983e-014 -7.95139e-015
rhumerus 14.6973 33.8389 -80.4264
rradius 135.429
rwrist -38.9683
rhand -18.7918 -3.64909
rfingers 7.12502
rthumb 7.50612 -33.4959
lclavicle -3.29983e-014 -7.95139e-015
lhumerus 11.5161 -38.6814 78.6169
lradius 137.926
lwrist 14.3144
lhand -20.0369 33.6737
lfingers 7.12502
lthumb 6.30424 63.5599
rfemur -62.3131 13.7037 21.1624
rtibia 51.9774
rfoot -8.99252 15.7501
rtoes 3.66506
lfemur -14.1919 3.05489 -0.166551
ltibia 67.5694
lfoot -24.0843 10.366
ltoes -38.2593
1407
root -0.702465 13.7351 5.2911 18.9181 -25.3358 -10.4014
lowerback 9.95041 -4.61152 -1.44694
upperback -1.32398 -6.16754 2.56285
thorax -6.52253 -2.92926 4.44
lowerneck -1.17693 10.5063 23.2595
upperneck 18.5323 14.4045 -11.0051
head 8.5132 7.65815 -6.09321
rclavicle 1.31198e-014 7.95139e-015
rhumerus 14.9472 33.769 -80.2641
rradius 135.416
rwrist -38.8811
rhand -18.8508 -3.69887
rfingers 7.12502
rthumb 7.44919 -33.5477
lclavicle 1.31198e-014 7.95139e-015
lhumerus 11.6389 -37.9229 78.2672
lradius 137.884
lwrist 15.1214
lhand -20.145 33.7693
lfingers 7.12502
lthumb 6.19988 63.6586
rfemur -62.353 13.6283 20.6053
rtibia 52.144
rfoot -9.24346 15.083
rtoes 3.2277
lfemur -14.2353 2.87661 -0.0880842
ltibia 67.0431
lfoot -24.1981 9.49307
ltoes -38.66
1408
root -0.714043 13.7501 5.28803 18.6972 -24.5891 -9.96308
lowerback 10.0078 -4.63993 -1.45205
upperback -1.33837 -6.20721 2.53799
thorax -6.56946 -2.94709 4.42925
lowerneck -1.53082 10.3485 23.0096
upperneck 18.4283 14.1535 -11.1248
head 8.47871 7.50431 -6.11838
rclavicle -5.12864e-014 4.77083e-015
rhumerus 15.1554 33.6258 -80.1397
rradius 135.433
rwrist -38.835
rhand -18.907 -3.72836
rfingers 7.12502
rthumb 7.39494 -33.5791
lclavicle -5.12864e-014 4.77083e-015
lhumerus 11.7645 -37.1044 77.9891
lradius 137.686
lwrist 15.5441
lhand -20.0959 33.8054
lfingers 7.12502
lthumb 6.24724 63.6933
rfemur -62.3858 13.4875 20.0139
rtibia 52.3907
rfoot -9.55535 14.2822
rtoes 2.64567
lfemur -14.3284 2.65848 0.0329376
ltibia 66.5168
lfoot -24.3262 8.52064
ltoes -39.051
1409
root -0.727587 13.7639 5.28385 18.4548 -23.6887 -9.50521
lowerback 10.0943 -4.65491 -1.39064
upperback -1.3579 -6.22074 2.51089
thorax -6.64773 -2.95348 4.37923
lowerneck -1.92551 10.1624 22.7208
upperneck 18.3382 13.85 -11.1919
head 8.44022 7.3257 -6.12457
rclavicle -2.06736e-014 -4.29375e-014
rhumerus 15.3267 33.4024 -80.028
rradius 135.484
rwrist -38.8547
rhand -18.9538 -3.73455
rfingers 7.12502
rthumb 7.3497 -33.5869
lclavicle -2.06736e-014 -4.29375e-014
lhumerus 11.9173 -36.2352 77.7761
lradius 137.284
lwrist 15.5579
lhand -19.9119 33.7793
lfingers 7.12502
lthumb 6.42484 63.6619
rfemur -62.4123 13.2895 19.4071
rtibia 52.7078
rfoot -9.90815 13.3572
rtoes 1.94927
lfemur -14.4883 2.42215 0.213185
ltibia 66.0034
lfoot -24.4652 7.45516
ltoes -39.396
1410
root -0.743337 13.7767 5.27869 18.1991 -22.6353 -9.0369
lowerback 10.1993 -4.65892 -1.26265
upperback -1.38164 -6.21083 2.4871
thorax -6.74956 -2.95007 4.29489
lowerneck -2.34938 9.94781 22.3858
upperneck 18.2527 13.4978 -11.209
head 8.39331 7.12366 -6.11146
rclavicle 1.55052e-014 -9.54166e-015
rhumerus 15.468 33.1015 -79.9156
rradius 135.566
rwrist -38.9498
rhand -18.9833 -3.71659
rfingers 7.12502
rthumb 7.32131 -33.5699
lclavicle 1.55052e-014 -9.54166e-015
lhumerus 12.1262 -35.32 77.621
lradius 136.637
lwrist 15.199
lhand -19.6071 33.7026
lfingers 7.12502
lthumb 6.71907 63.576
rfemur -62.426 13.0346 18.7934
rtibia 53.0857
rfoot -10.2764 12.3292
rtoes 1.2075
lfemur -14.722 2.17744 0.453525
ltibia 65.5098
lfoot -24.6079 6.31456
ltoes -39.6819
1411
root -0.761526 13.7886 5.27263 17.9366 -21.4346 -8.55823
lowerback 10.3049 -4.65339 -1.07987
upperback -1.40235 -6.18031 2.47091
thorax -6.85501 -2.93856 4.18511
lowerneck -2.80095 9.70741 21.9892
upperneck 18.1591 13.1026 -11.1756
head 8.33412 6.89986 -6.07546
rclavicle -3.45885e-014 2.22639e-014
rhumerus 15.5998 32.7336 -79.778
rradius 135.682
rwrist -39.1066
rhand -19.0137 -3.70532
rfingers 7.12502
rthumb 7.29196 -33.5597
lclavicle -3.45885e-014 2.22639e-014
lhumerus 12.4481 -34.3611 77.5008
lradius 135.711
lwrist 14.5679
lhand -19.2092 33.5873
lfingers 7.12502
lthumb 7.10322 63.4481
rfemur -62.425 12.7238 18.1718
rtibia 53.5157
rfoot -10.6387 11.228
rtoes 0.474947
lfemur -15.038 1.92921 0.743726
ltibia 65.0396
lfoot -24.7465 5.11136
ltoes -39.8941
